<svg 
    id="visual"
    viewBox="0 0 900 600" 
    width="900" 
    height="600" 
    preserveAspectRatio="xMidYMid meet"
    xmlns="http://www.w3.org/2000/svg" 
    xmlns:xlink="http://www.w3.org/1999/xlink" 
    version="1.1"
>
    <style>
    path {
      transform: scale(1, 1);
    }
    @media (max-width: 630px) {
      path {
        transform: scale(1, 3.0);
      }
    }
    </style>
    <path d="M0 124L21.5 111.7C43 99.3 86 74.7 128.8 61.8C171.7 49 214.3 48 257.2 50.5C300 53 343 59 385.8 68.2C428.7 77.3 471.3 89.7 514.2 99.7C557 109.7 600 117.3 642.8 121.5C685.7 125.7 728.3 126.3 771.2 115.8C814 105.3 857 83.7 878.5 72.8L900 62L900 0L878.5 0C857 0 814 0 771.2 0C728.3 0 685.7 0 642.8 0C600 0 557 0 514.2 0C471.3 0 428.7 0 385.8 0C343 0 300 0 257.2 0C214.3 0 171.7 0 128.8 0C86 0 43 0 21.5 0L0 0Z" fill="#303030" stroke-linecap="round" stroke-linejoin="miter"></path>
</svg>