<svg id="visual" viewBox="0 0 900 600" width="900" height="600" xmlns="http://www.w3.org/2000/svg" xmlns:xlink="http://www.w3.org/1999/xlink" version="1.1"><path d="M0 335L30 303C60 271 120 207 180 187.2C240 167.3 300 191.7 360 224.3C420 257 480 298 540 304.5C600 311 660 283 720 266.3C780 249.7 840 244.3 870 241.7L900 239L900 0L870 0C840 0 780 0 720 0C660 0 600 0 540 0C480 0 420 0 360 0C300 0 240 0 180 0C120 0 60 0 30 0L0 0Z" fill="#303030" stroke-linecap="round" stroke-linejoin="miter"></path></svg>