<svg id="visual" viewBox="0 0 900 600" width="900" height="600" xmlns="http://www.w3.org/2000/svg" xmlns:xlink="http://www.w3.org/1999/xlink" version="1.1"><path d="M0 431L30 447C60 463 120 495 180 504.8C240 514.7 300 502.3 360 486C420 469.7 480 449.3 540 446.2C600 443 660 457 720 465.3C780 473.7 840 476.3 870 477.7L900 479L900 601L870 601C840 601 780 601 720 601C660 601 600 601 540 601C480 601 420 601 360 601C300 601 240 601 180 601C120 601 60 601 30 601L0 601Z" fill="#303030" stroke-linecap="round" stroke-linejoin="miter"></path></svg>